<svg width="200" height="200" viewBox="0 0 200 200" xmlns="http://www.w3.org/2000/svg">
  <!-- 背景圆形 -->
  <circle cx="100" cy="100" r="95" fill="#F0F9FF"/>
  
  <!-- 婴儿图形 -->
  <path d="M100 45c-12 0-22 10-22 22s10 22 22 22 22-10 22-22-10-22-22-22zm0 8c7.7 0 14 6.3 14 14s-6.3 14-14 14-14-6.3-14-14 6.3-14 14-14z" fill="#91D5FF"/>
  <path d="M75 95c-5 0-9 4-9 9v20c0 18.8 15.2 34 34 34s34-15.2 34-34v-20c0-5-4-9-9-9H75z" fill="#91D5FF"/>
  
  <!-- 握手图形 -->
  <path d="M60 120c0 0 20 20 40 20s40-20 40-20" stroke="#1890FF" stroke-width="8" stroke-linecap="round" fill="none"/>
  <path d="M70 130c0 0 15 15 30 15s30-15 30-15" stroke="#40A9FF" stroke-width="6" stroke-linecap="round" fill="none"/>
</svg>